<?xml version="1.0" encoding="UTF-8" standalone="no"?><!DOCTYPE svg PUBLIC "-//W3C//DTD SVG 1.1//EN" "http://www.w3.org/Graphics/SVG/1.1/DTD/svg11.dtd"><svg width="100%" height="100%" viewBox="0 0 73 73" version="1.1" xmlns="http://www.w3.org/2000/svg" xmlns:xlink="http://www.w3.org/1999/xlink" xml:space="preserve" xmlns:serif="http://www.serif.com/" style="fill-rule:evenodd;clip-rule:evenodd;stroke-linejoin:round;stroke-miterlimit:2;"><g><g><path d="M72,19.94c0,-0.72 -0.01,-1.45 -0.03,-2.17c-0.04,-1.58 -0.14,-3.17 -0.42,-4.73c-0.28,-1.58 -0.75,-3.06 -1.48,-4.5c-0.72,-1.41 -1.66,-2.71 -2.78,-3.83c-1.12,-1.12 -2.42,-2.06 -3.83,-2.78c-1.44,-0.73 -2.91,-1.2 -4.49,-1.48c-1.56,-0.28 -3.15,-0.37 -4.73,-0.42c-0.73,-0.01 -1.46,-0.02 -2.18,-0.03l-32.12,-0c-0.72,-0 -1.45,0.01 -2.17,0.03c-1.58,0.04 -3.17,0.14 -4.73,0.42c-1.58,0.29 -3.06,0.75 -4.49,1.49c-1.42,0.72 -2.71,1.66 -3.83,2.78c-1.12,1.12 -2.07,2.41 -2.79,3.83c-0.73,1.44 -1.2,2.91 -1.48,4.5c-0.28,1.56 -0.37,3.15 -0.42,4.73c-0.01,0.72 -0.02,1.44 -0.03,2.17l0,32.12c0,0.72 0.01,1.45 0.03,2.17c0.04,1.58 0.14,3.17 0.42,4.73c0.28,1.58 0.75,3.06 1.48,4.5c0.72,1.41 1.66,2.71 2.78,3.83c1.12,1.12 2.42,2.06 3.83,2.78c1.44,0.73 2.91,1.2 4.49,1.48c1.56,0.28 3.15,0.37 4.73,0.42c0.72,0.02 1.45,0.03 2.17,0.03c0.86,0.01 1.72,0 2.58,0l29.53,0c0.72,0 1.45,-0.01 2.17,-0.03c1.58,-0.04 3.17,-0.14 4.73,-0.42c1.58,-0.28 3.06,-0.75 4.49,-1.48c1.41,-0.72 2.71,-1.66 3.83,-2.78c1.12,-1.12 2.06,-2.41 2.78,-3.83c0.73,-1.44 1.2,-2.91 1.48,-4.5c0.28,-1.56 0.37,-3.15 0.42,-4.73c0.02,-0.72 0.03,-1.45 0.03,-2.17c0.01,-0.86 0,-1.72 0,-2.58l0,-26.97c0.03,-0.86 0.03,-1.72 0.03,-2.58Zm-19.29,26.91c-0,0.91 -0.01,1.74 -0.2,2.65c-0.19,0.89 -0.53,1.72 -1.05,2.47c-0.52,0.75 -1.19,1.36 -1.97,1.82c-0.79,0.47 -1.62,0.73 -2.5,0.91c-1.66,0.33 -2.79,0.41 -3.86,0.2c-1.03,-0.21 -1.9,-0.68 -2.6,-1.32c-1.03,-0.95 -1.68,-2.23 -1.82,-3.56c-0.16,-1.57 0.36,-3.24 1.53,-4.48c0.59,-0.62 1.34,-1.11 2.34,-1.5c1.04,-0.4 2.19,-0.65 3.96,-1c0.47,-0.09 0.93,-0.19 1.4,-0.28c0.61,-0.12 1.14,-0.28 1.56,-0.8c0.43,-0.52 0.43,-1.16 0.43,-1.78l-0,-15.86c-0,-1.21 -0.54,-1.54 -1.7,-1.32c-0.83,0.16 -18.62,3.75 -18.62,3.75c-1,0.24 -1.36,0.57 -1.36,1.82l-0,23.23c-0,0.91 -0.05,1.74 -0.24,2.65c-0.19,0.89 -0.53,1.72 -1.05,2.47c-0.52,0.75 -1.19,1.36 -1.97,1.82c-0.79,0.47 -1.62,0.74 -2.5,0.92c-1.66,0.33 -2.79,0.41 -3.86,0.2c-1.03,-0.21 -1.9,-0.69 -2.6,-1.33c-1.03,-0.95 -1.63,-2.23 -1.78,-3.56c-0.16,-1.57 0.31,-3.24 1.49,-4.48c0.59,-0.62 1.34,-1.11 2.34,-1.5c1.04,-0.4 2.19,-0.65 3.96,-1c0.47,-0.09 0.93,-0.19 1.4,-0.28c0.61,-0.12 1.14,-0.28 1.56,-0.8c0.42,-0.52 0.47,-1.13 0.47,-1.75l-0,-26.79c-0,-0.36 0.03,-0.6 0.05,-0.72c0.09,-0.56 0.31,-1.05 0.72,-1.39c0.34,-0.28 0.78,-0.48 1.33,-0.6l0.01,0l21.42,-4.33c0.19,-0.04 1.73,-0.31 1.91,-0.33c1.16,-0.1 1.81,0.66 1.81,1.89l-0.01,33.96Z" style="fill:#e7e7e7;"/></g></g></svg>