<?xml version="1.0" encoding="UTF-8" standalone="no"?><!DOCTYPE svg PUBLIC "-//W3C//DTD SVG 1.1//EN" "http://www.w3.org/Graphics/SVG/1.1/DTD/svg11.dtd"><svg width="100%" height="100%" viewBox="0 0 939 940" version="1.1" xmlns="http://www.w3.org/2000/svg" xmlns:xlink="http://www.w3.org/1999/xlink" xml:space="preserve" xmlns:serif="http://www.serif.com/" style="fill-rule:evenodd;clip-rule:evenodd;stroke-linejoin:round;stroke-miterlimit:2;"><path d="M529,17c1.41,0.201 2.821,0.402 4.231,0.602c49.245,7.088 97.588,21.109 141.748,44.342c2.293,1.198 4.602,2.365 6.912,3.533c36.335,18.503 72.78,43.104 101.186,72.603c1.827,1.824 3.715,3.494 5.685,5.162c4.167,3.621 7.937,7.513 11.675,11.571c0.652,0.702 1.304,1.404 1.976,2.127c1.867,2.016 3.728,4.037 5.587,6.06c0.875,0.949 1.751,1.898 2.652,2.875c5.345,5.861 10.411,11.917 15.348,18.125c0.442,0.548 0.885,1.097 1.34,1.662c16.543,20.594 31.136,43.101 43.66,66.338c0.483,0.881 0.967,1.762 1.465,2.669c50.886,92.884 65.048,203.144 36.504,340.706c-15.388,52.471 -38.862,103.554 -72.596,146.855c-1.322,1.705 -2.624,3.423 -3.92,5.149c-8.845,11.739 -18.51,22.803 -28.453,33.621c-0.545,0.596 -1.091,1.191 -1.652,1.805c-8.108,8.838 -16.385,17.225 -25.348,25.195c-0.889,0.828 -1.779,1.655 -2.695,2.508c-6.525,6.068 -13.347,11.608 -20.409,17.028c-1.919,1.482 -3.822,2.983 -5.724,4.487c-63.176,49.634 -139,79.623 -218.172,90.977c-1.234,0.179 -2.468,0.359 -3.739,0.543c-37.794,5.19 -78.54,5.015 -116.261,-0.543c-1.412,-0.201 -2.824,-0.402 -4.235,-0.602c-43.575,-6.271 -85.647,-18.158 -125.765,-36.398c-0.912,-0.409 -1.824,-0.819 -2.764,-1.24c-36.091,-16.277 -69.972,-38.268 -100.236,-63.76c-0.512,-0.427 -1.024,-0.854 -1.551,-1.293c-14.961,-12.493 -29.841,-25.722 -42.551,-40.531c-2.165,-2.483 -4.407,-4.887 -6.648,-7.301c-5.242,-5.755 -10.039,-11.792 -14.777,-17.965c-1.51,-1.958 -3.037,-3.901 -4.567,-5.844c-12.16,-15.537 -23.066,-31.968 -32.906,-49.066c-0.37,-0.633 -0.74,-1.266 -1.121,-1.917c-39.784,-68.267 -60.174,-146.957 -60.067,-225.833c0.001,-0.897 0.002,-1.795 0.003,-2.719c0.113,-49.948 7.984,-99.241 24.185,-146.531c0.389,-1.137 0.778,-2.275 1.179,-3.446c18,-51.899 45.642,-99.477 80.821,-141.554c0.435,-0.521 0.87,-1.043 1.318,-1.58c12.52,-14.956 25.707,-29.854 40.541,-42.557c2.473,-2.152 4.864,-4.383 7.266,-6.613c5.819,-5.304 11.94,-10.143 18.181,-14.937c1.523,-1.181 3.026,-2.388 4.526,-3.598c16.816,-13.412 35.391,-25.254 54.168,-35.715c0.86,-0.487 1.721,-0.975 2.607,-1.477c49.913,-28.221 104.723,-45.503 161.393,-53.523c1.121,-0.165 2.242,-0.33 3.397,-0.5c37.849,-5.349 78.815,-5.092 116.603,0.5Zm-247.188,254.688c-0.794,0.08 -1.589,0.16 -2.408,0.242c-26.85,2.736 -53.721,6.605 -80.217,11.758c-1.392,0.266 -1.392,0.266 -2.812,0.538c-13.239,2.745 -23.679,8.207 -31.805,19.243c-6.703,10.805 -9.174,22.056 -6.382,34.469c2.978,11.013 8.967,20.283 18.75,26.375c14.971,8.386 28.206,7.158 44.46,3.981c32.28,-6.272 64.803,-10.101 97.602,-12.294c0.686,-0.048 1.372,-0.096 2.079,-0.146c15.914,-1.09 31.852,-1.098 47.796,-1.104c0.712,-0.001 1.424,-0.001 2.158,-0.002c25.75,-0.015 51.32,0.812 76.967,3.252c1.126,0.105 1.126,0.105 2.275,0.213c77.087,7.275 153.549,25.995 300.151,89.053c10.691,5.187 22.162,4.508 33.262,0.734c12.088,-5.034 20.365,-15.121 25.312,-27c3.603,-10.916 2.197,-21.964 -2.555,-32.281c-7.603,-14.303 -19.939,-20.433 -33.945,-27.281c-0.887,-0.439 -1.775,-0.877 -2.689,-1.328c-16.709,-8.249 -33.576,-16.026 -50.811,-23.11c-0.675,-0.278 -1.349,-0.555 -2.044,-0.841c-78.94,-32.392 -162.004,-53.949 -257.018,-64.346c-0.753,-0.079 -1.506,-0.158 -2.282,-0.24c-27.508,-2.847 -55.047,-3.919 -82.688,-3.834c-3.723,0.012 -7.446,0.005 -11.169,-0.007c-27.4,-0.071 -54.722,1.15 -81.986,3.956Zm15.385,157.059c-2.312,0.266 -4.626,0.52 -6.94,0.773c-18.432,2.035 -36.709,4.742 -54.945,8.105c-0.793,0.146 -1.585,0.292 -2.401,0.443c-23.739,3.761 -23.739,3.761 -42.443,17.78c-5.774,8.46 -7.325,17.055 -6.469,27.152c2.157,9.693 7.245,17.574 15.313,23.375c12.559,7.677 24.476,5.697 38.175,2.919c39.088,-7.882 78.622,-12.533 118.512,-13.294c1.065,-0.022 2.13,-0.044 3.228,-0.066c79.504,-1.394 158.738,11.57 325.743,77.15c1.111,0.567 1.111,0.567 2.244,1.145c1.381,0.704 2.757,1.414 4.13,2.132c9.033,4.587 17.228,5.742 27.092,3.014c5.8,-1.896 10.145,-4.179 14.563,-8.375c0.553,-0.525 1.106,-1.049 1.676,-1.59c5.913,-6.236 8.872,-14.245 9.422,-22.769c-0.415,-11.221 -4.986,-20.041 -12.853,-27.77c-4.51,-3.759 -9.742,-6.304 -14.933,-8.996c-1.248,-0.656 -2.497,-1.312 -3.745,-1.969c-32.596,-17.024 -66.751,-31.118 -101.567,-42.906c-1.19,-0.407 -2.381,-0.813 -3.607,-1.232c-56.796,-19.291 -115.559,-30.597 -175.233,-36.006c-0.69,-0.064 -1.381,-0.127 -2.092,-0.192c-13.076,-1.145 -26.102,-1.735 -39.228,-1.773c-1.508,-0.007 -3.015,-0.014 -4.523,-0.021c-4.793,-0.02 -9.586,-0.025 -14.38,-0.026c-0.817,-0 -1.634,-0.001 -2.476,-0.001c-24.183,-0.007 -48.211,0.21 -72.263,2.998Zm6.802,141.253c-1.092,0.131 -1.092,0.131 -2.206,0.264c-21.129,2.561 -42.005,6.168 -62.794,10.736c-0.861,0.184 -1.723,0.368 -2.61,0.558c-10.441,2.268 -17.61,5.139 -23.828,14.13c-4.148,6.545 -4.309,12.696 -3.562,20.312c2.622,8.883 8.475,14.249 16.187,18.938c10.01,2.789 19.997,0.704 29.896,-1.644c24.766,-5.835 50.104,-9.428 75.486,-11.131c2.252,-0.151 4.501,-0.323 6.751,-0.499c79.83,-5.691 161.505,8.289 300.992,68.211c8.176,4.712 15.588,7.488 25.063,5c7.741,-2.844 13.648,-7.512 17.668,-14.754c3.015,-7.006 2.929,-14.084 0.457,-21.246c-5.1,-10.912 -15.009,-15.817 -25.25,-21.062c-1.431,-0.745 -2.862,-1.49 -4.292,-2.236c-70.928,-36.747 -147.167,-58.823 -236.958,-67.577c-1.139,-0.096 -2.278,-0.191 -3.452,-0.29c-13.394,-0.989 -26.812,-0.954 -40.236,-0.96c-1.927,-0.001 -1.927,-0.001 -3.894,-0.002c-21.281,0.018 -42.287,0.705 -63.418,3.252Z" style="fill:#e7e7e7;fill-rule:nonzero;"/></svg>