<?xml version="1.0" encoding="UTF-8" standalone="no"?><!DOCTYPE svg PUBLIC "-//W3C//DTD SVG 1.1//EN" "http://www.w3.org/Graphics/SVG/1.1/DTD/svg11.dtd"><svg width="100%" height="100%" viewBox="0 0 125 90" version="1.1" xmlns="http://www.w3.org/2000/svg" xmlns:xlink="http://www.w3.org/1999/xlink" xml:space="preserve" xmlns:serif="http://www.serif.com/" style="fill-rule:evenodd;clip-rule:evenodd;stroke-linejoin:round;stroke-miterlimit:2;"><rect id="Artboard1" x="0" y="0" width="124.042" height="89.404" style="fill:none;"/><g id="Layer-1" serif:id="Layer 1"><path d="M49.617,63.86l-0,-38.316l32.226,19.158l-32.226,19.158Zm71.833,-49.899c-1.427,-5.495 -5.63,-9.823 -10.967,-11.292c-9.673,-2.669 -48.463,-2.669 -48.463,-2.669c0,0 -38.788,0 -48.462,2.669c-5.337,1.469 -9.539,5.797 -10.966,11.292c-2.592,9.96 -2.592,30.741 -2.592,30.741c0,0 0,20.782 2.592,30.742c1.427,5.494 5.629,9.822 10.966,11.291c9.674,2.669 48.462,2.669 48.462,2.669c0,0 38.79,0 48.463,-2.669c5.337,-1.469 9.54,-5.797 10.967,-11.291c2.592,-9.96 2.592,-30.742 2.592,-30.742c-0,0 -0,-20.781 -2.592,-30.741" style="fill:#e7e7e7;fill-rule:nonzero;"/></g></svg>